<svg width="40" height="40" viewBox="0 0 40 40" fill="none" xmlns="http://www.w3.org/2000/svg">
  <!-- T-shirt outline -->
  <path d="M8 12 L12 8 L28 8 L32 12 L32 32 L8 32 Z" stroke="#4B5563" stroke-width="2" fill="white"/>
  
  <!-- Left side (plain white) -->
  <path d="M8 12 L20 12 L20 32 L8 32 Z" fill="white"/>
  
  <!-- Right side pattern -->
  <path d="M20 12 L32 12 L32 32 L20 32 Z" fill="url(#pattern)"/>
  
  <!-- Sleeve details -->
  <path d="M12 8 L12 12 L8 12" stroke="#4B5563" stroke-width="1"/>
  <path d="M28 8 L28 12 L32 12" stroke="#4B5563" stroke-width="1"/>
  
  <!-- Pattern definition -->
  <defs>
    <pattern id="pattern" x="0" y="0" width="4" height="4" patternUnits="userSpaceOnUse">
      <!-- Dots pattern -->
      <circle cx="2" cy="2" r="0.5" fill="#6B7280"/>
      <circle cx="6" cy="2" r="0.5" fill="#6B7280"/>
      <circle cx="2" cy="6" r="0.5" fill="#6B7280"/>
      <circle cx="6" cy="6" r="0.5" fill="#6B7280"/>
      
      <!-- Teal blue section -->
      <rect x="8" y="0" width="4" height="4" fill="#0D9488"/>
      <rect x="12" y="0" width="4" height="4" fill="#0D9488"/>
      <rect x="8" y="4" width="4" height="4" fill="#0D9488"/>
      <rect x="12" y="4" width="4" height="4" fill="#0D9488"/>
    </pattern>
  </defs>
</svg>
